<svg xmlns="http://www.w3.org/2000/svg" xmlns:xlink="http://www.w3.org/1999/xlink" width="21" height="21" viewBox="0 0 21 21"><defs><path id="qfeoa" d="M746 32.79v6.36c0 2.1-1.42 2.85-2.74 2.85h-12.33c-2.02 0-2.74-1.47-2.74-2.85v-6.36a3.17 3.17 0 0 1 .7-2.04l.9-.75v-2.83c0-.4.31-.72.7-.72h3.55l2.86-2.38c.11-.1.26-.1.37 0l2.86 2.38h3.56a.7.7 0 0 1 .69.72V30l.9.75c.03.01.03.04.03.04v-.01c.47.55.72 1.27.69 2zm-1.62-1.66l.23-.16-.23-.2zM735 26.46h4.2l-2.1-1.76zm-4.6 5.1l6.7 4.87 6.7-4.86v-4.4a.1.1 0 0 0-.1-.1h-13.2a.1.1 0 0 0-.1.1zm-.82-.6l.23.18v-.36zm-.53 9.37l5.97-4.66-5.87-4.26c-.24.41-.37.89-.36 1.38v6.35c0 .41.09.82.26 1.19zm15.73.52l-6.14-4.77-1.37 1h-.05a.28.28 0 0 1-.12.02.28.28 0 0 1-.12-.03h-.05l-1.4-1.03-6.13 4.79c.42.39.97.59 1.53.55h12.34c.55.02 1.08-.17 1.5-.53zm.27-9.44l-5.9 4.28 6 4.68c.18-.38.27-.8.26-1.22v-6.36c.02-.49-.1-.97-.36-1.38zm-6-2.67a.3.3 0 0 1-.3.3h-6.45a.3.3 0 0 1-.3-.3c0-.17.14-.3.3-.3h6.46c.16 0 .3.13.3.3zm3.15 2.25a.3.3 0 0 1-.3.3h-9.6a.3.3 0 0 1-.3-.3c0-.17.14-.31.3-.31h9.6c.17 0 .3.14.3.3z"/></defs><g><g transform="translate(-727 -22)"><use fill="#75a423" xlink:href="#qfeoa"/></g></g></svg>