<svg xmlns="http://www.w3.org/2000/svg" xmlns:xlink="http://www.w3.org/1999/xlink" width="20" height="21" viewBox="0 0 20 21"><defs><path id="njpja" d="M547.05 33.6v7.08c0 .73-.59 1.32-1.3 1.32h-7.45c-.72 0-1.3-.6-1.3-1.32V25.32c0-.73.58-1.32 1.3-1.32h7.44c.72 0 1.3.6 1.3 1.32v5.28a.3.3 0 0 1-.29.3.3.3 0 0 1-.3-.3v-4.2h-8.86v11.4h8.87v-4.2c0-.17.13-.3.3-.3.15 0 .29.13.29.3zm-9.46-8.28v.48h8.86v-.48c0-.4-.31-.72-.7-.72h-7.45c-.39 0-.7.32-.71.72zm8.87 15.36V38.4h-8.87v2.28c0 .4.32.72.71.72h7.44c.4 0 .72-.32.72-.72zm-3.26-.78c0 .66-.53 1.2-1.18 1.2a1.2 1.2 0 0 1-1.18-1.2c0-.66.53-1.2 1.18-1.2.65 0 1.18.54 1.18 1.2zm-.59 0a.6.6 0 0 0-.59-.6.6.6 0 0 0-.59.6c0 .33.27.6.6.6a.6.6 0 0 0 .58-.6zm-2.06-14.7c0-.17.13-.3.3-.3h1.17c.17 0 .3.13.3.3a.3.3 0 0 1-.3.3h-1.18a.3.3 0 0 1-.3-.3zm2.06 0c0-.17.14-.3.3-.3h.3c.16 0 .29.13.29.3a.3.3 0 0 1-.3.3h-.3a.3.3 0 0 1-.29-.3zm10.55 7.11l-3.54 3.6a.3.3 0 0 1-.42 0 .3.3 0 0 1 0-.42l3.04-3.09h-10.51a.3.3 0 0 1-.3-.3c0-.17.13-.3.3-.3h10.51l-3.04-3.09a.3.3 0 0 1 0-.42.3.3 0 0 1 .42 0l3.54 3.6a.3.3 0 0 1 .07.32.3.3 0 0 1-.07.1z"/></defs><g><g transform="translate(-535 -22)"><use fill="#75a423" xlink:href="#njpja"/></g></g></svg>