<svg xmlns="http://www.w3.org/2000/svg" xmlns:xlink="http://www.w3.org/1999/xlink" width="17" height="18" viewBox="0 0 17 18"><defs><path id="pjgxa" d="M165.75 451.75a1.75 1.75 0 1 1 3.5 0 1.75 1.75 0 0 1-3.5 0zm.5 0a1.25 1.25 0 1 0 2.5 0 1.25 1.25 0 0 0-2.5 0zm-2.64 3.4a5.46 5.46 0 0 1 .46-6.75 4.76 4.76 0 0 1 6.78 0 5.46 5.46 0 0 1 .44 6.75l-3.83 5.54zm.41-.3l3.44 4.96 3.43-4.95a4.94 4.94 0 0 0-.4-6.1 4.27 4.27 0 0 0-6.07 0 4.93 4.93 0 0 0-.4 6.09zm10.98 5.02c0 1.06-2.58 2.13-7.5 2.13s-7.5-1.07-7.5-2.13c0-.94 1.84-1.8 4.47-2.12.14-.02.26.08.28.22a.25.25 0 0 1-.22.28c-2.63.3-4.03 1.14-4.03 1.62 0 .68 2.66 1.63 7 1.63s7-.95 7-1.63c0-.48-1.4-1.31-4.03-1.62a.25.25 0 0 1 .06-.5c2.63.31 4.47 1.18 4.47 2.12z"/></defs><g><g transform="translate(-159 -445)"><use fill="#75a423" xlink:href="#pjgxa"/></g></g></svg>