<?xml version="1.0" encoding="UTF-8" standalone="no"?>
<svg
   xmlns:dc="http://purl.org/dc/elements/1.1/"
   xmlns:cc="http://creativecommons.org/ns#"
   xmlns:rdf="http://www.w3.org/1999/02/22-rdf-syntax-ns#"
   xmlns:svg="http://www.w3.org/2000/svg"
   xmlns="http://www.w3.org/2000/svg"
   xmlns:xlink="http://www.w3.org/1999/xlink"
   xmlns:sodipodi="http://sodipodi.sourceforge.net/DTD/sodipodi-0.dtd"
   xmlns:inkscape="http://www.inkscape.org/namespaces/inkscape"
   width="25"
   height="25"
   viewBox="0 0 25 25"
   version="1.1"
   id="svg14"
   sodipodi:docname="icomoon.svg"
   inkscape:version="0.92.1 r15371">
  <metadata
     id="metadata18">
    <rdf:RDF>
      <cc:Work
         rdf:about="">
        <dc:format>image/svg+xml</dc:format>
        <dc:type
           rdf:resource="http://purl.org/dc/dcmitype/StillImage" />
        <dc:title></dc:title>
      </cc:Work>
    </rdf:RDF>
  </metadata>
  <sodipodi:namedview
     pagecolor="#ffffff"
     bordercolor="#666666"
     borderopacity="1"
     objecttolerance="10"
     gridtolerance="10"
     guidetolerance="10"
     inkscape:pageopacity="0"
     inkscape:pageshadow="2"
     inkscape:window-width="1440"
     inkscape:window-height="837"
     id="namedview16"
     showgrid="false"
     inkscape:zoom="9.44"
     inkscape:cx="12.5"
     inkscape:cy="12.5"
     inkscape:window-x="-8"
     inkscape:window-y="-8"
     inkscape:window-maximized="1"
     inkscape:current-layer="svg14" />
  <defs
     id="defs6">
    <path
       id="9x20a"
       d="M1099.37 208.2c0 .46-.73 1.2-1.19 1.2-.45 0-1.18-.74-1.18-1.2 0-.47.73-1.18 1.18-1.18.46 0 1.2.71 1.2 1.19zm-1.16 19.8c-.48 0-1.2-.73-1.2-1.18 0-.46.72-1.2 1.2-1.2.47 0 1.18.74 1.18 1.2 0 .45-.71 1.18-1.18 1.18zm3.43-17.55c0 .48-.74 1.19-1.19 1.19-.45 0-1.19-.71-1.19-1.19 0-.45.74-1.19 1.2-1.19.44 0 1.18.74 1.18 1.2zm-1.17 15.29c-.47 0-1.18-.74-1.18-1.2 0-.44.7-1.18 1.18-1.18s1.19.74 1.19 1.19c0 .45-.71 1.19-1.19 1.19zm2.27-2.3c-.48 0-1.19-.73-1.19-1.18 0-.45.71-1.19 1.19-1.19.47 0 1.19.74 1.19 1.2 0 .44-.72 1.18-1.19 1.18zm1.17-10.7c0 .47-.74 1.19-1.17 1.19-.43 0-1.17-.72-1.17-1.2 0-.47.74-1.18 1.17-1.18.43 0 1.17.71 1.17 1.19zm2.28 2.24c0 .48-.73 1.21-1.18 1.21-.46 0-1.2-.73-1.2-1.2 0-.46.74-1.2 1.2-1.2.45 0 1.18.74 1.18 1.2zm-1.18 6.2c-.48 0-1.2-.73-1.2-1.19 0-.45.72-1.18 1.2-1.18.47 0 1.18.73 1.18 1.18 0 .46-.7 1.2-1.18 1.2zm2.5-2.16c-.63 0-1.55-.95-1.55-1.53 0-.58.92-1.53 1.55-1.53s1.56.95 1.56 1.53c0 .58-.93 1.53-1.56 1.53zm2.5-2.83c-.47 0-1.2-.73-1.2-1.18 0-.46.73-1.2 1.2-1.2.46 0 1.2.74 1.2 1.2 0 .45-.74 1.18-1.2 1.18zm1.17 3.8c0 .48-.73 1.2-1.19 1.2-.45 0-1.18-.72-1.18-1.2 0-.47.73-1.18 1.18-1.18.46 0 1.2.7 1.2 1.18zm1.08-6.1c-.47 0-1.19-.72-1.19-1.17 0-.46.72-1.17 1.2-1.17.47 0 1.18.71 1.18 1.17 0 .45-.71 1.16-1.19 1.16zm1.19 8.37c0 .48-.71 1.19-1.17 1.19-.45 0-1.16-.71-1.16-1.19 0-.47.7-1.19 1.16-1.19.46 0 1.17.72 1.17 1.2zm1.1-10.62c-.48 0-1.19-.74-1.19-1.19 0-.45.71-1.19 1.19-1.19.45 0 1.19.74 1.19 1.2 0 .44-.74 1.18-1.2 1.18zm1.19 12.89c0 .47-.74 1.18-1.2 1.18-.44 0-1.18-.7-1.18-1.18 0-.46.74-1.19 1.19-1.19.45 0 1.19.73 1.19 1.19zm1.05-15.16c-.45 0-1.18-.73-1.18-1.19 0-.45.73-1.18 1.18-1.18.48 0 1.2.73 1.2 1.18 0 .46-.72 1.2-1.2 1.2zm1.21 17.42c0 .48-.73 1.2-1.18 1.2-.46 0-1.2-.72-1.2-1.2 0-.47.74-1.18 1.2-1.18.45 0 1.18.71 1.18 1.18z" />
    <clipPath
       id="9x20b">
      <use
         fill="#fff"
         xlink:href="#9x20a"
         id="use3" />
    </clipPath>
  </defs>
  <g
     id="g12">
    <g
       transform="translate(-1095 -205)"
       id="g10">
      <use
         fill="#fff"
         fill-opacity="0"
         stroke="#d8d9d7"
         stroke-miterlimit="50"
         stroke-width="2"
         clip-path="url(&quot;#9x20b&quot;)"
         xlink:href="#9x20a"
         id="use8" />
    </g>
  </g>
</svg>
